<svg xmlns="http://www.w3.org/2000/svg" viewBox="0 0 490.667 490.667" width="512" height="512"><path d="M256 44.075V128h66.923C307.307 82.645 283.2 50.773 256 44.075zM167.744 128h66.923V44.075c-27.2 6.698-51.307 38.57-66.923 83.925zm228.331-17.792c-24.747-27.605-56.341-47.509-90.965-58.283 16.661 18.517 30.549 44.629 40.512 76.075h42.496c4.203 0 8.021-2.475 9.749-6.315a10.644 10.644 0 0 0-1.792-11.477zm-301.483 0a10.69 10.69 0 0 0-1.813 11.477 10.679 10.679 0 0 0 9.749 6.315h42.496c9.963-31.445 23.851-57.557 40.512-76.075-34.603 10.774-66.219 30.678-90.944 58.283zm73.152 252.459c15.616 45.355 39.723 77.227 66.923 83.925v-83.925h-66.923zm88.256 0v83.925c27.2-6.699 51.307-38.571 66.923-83.925H256zm141.888 6.314a10.702 10.702 0 0 0-9.749-6.315h-42.496c-9.963 31.445-23.851 57.557-40.512 76.075 34.624-10.773 66.219-30.677 90.965-58.283a10.725 10.725 0 0 0 1.792-11.477zm-252.864-6.314h-42.496a10.701 10.701 0 0 0-9.749 6.315 10.69 10.69 0 0 0 1.813 11.477c24.747 27.605 56.341 47.509 90.965 58.283-16.682-18.518-30.57-44.63-40.533-76.075zm292.309-213.334h-384C23.915 149.333 0 173.269 0 202.667V288c0 29.397 23.915 53.333 53.333 53.333h384c29.419 0 53.333-23.936 53.333-53.333v-85.333c.001-29.398-23.914-53.334-53.333-53.334zm-266.986 55.915l-21.333 85.333a10.645 10.645 0 0 1-9.941 8.064h-.427a10.686 10.686 0 0 1-10.133-7.296l-11.179-33.621-11.2 33.643c-1.493 4.48-4.885 7.509-10.539 7.275-4.736-.171-8.789-3.477-9.941-8.064L64.32 205.248c-1.429-5.696 2.027-11.499 7.765-12.928 5.632-1.451 11.499 2.027 12.928 7.765l12.437 49.792 9.749-29.248c2.923-8.704 17.344-8.704 20.245 0l9.749 29.248 12.437-49.792c1.451-5.739 7.147-9.195 12.949-7.765 5.741 1.429 9.197 7.232 7.768 12.928zm128 0l-21.333 85.333a10.645 10.645 0 0 1-9.941 8.064h-.427a10.686 10.686 0 0 1-10.133-7.296l-11.179-33.621-11.2 33.643c-1.493 4.48-4.971 7.509-10.539 7.275-4.736-.171-8.789-3.477-9.941-8.064l-21.333-85.333c-1.429-5.696 2.027-11.499 7.765-12.928 5.632-1.451 11.52 2.027 12.928 7.765l12.437 49.792 9.749-29.248c2.923-8.704 17.344-8.704 20.245 0l9.749 29.248 12.437-49.792c1.408-5.739 7.125-9.195 12.928-7.765 5.761 1.428 9.217 7.231 7.788 12.927zm128 0l-21.333 85.333a10.645 10.645 0 0 1-9.941 8.064h-.427a10.686 10.686 0 0 1-10.133-7.296l-11.179-33.621-11.2 33.643c-1.493 4.48-5.077 7.509-10.539 7.275-4.736-.171-8.789-3.477-9.941-8.064l-21.333-85.333c-1.408-5.717 2.048-11.499 7.765-12.928 5.632-1.451 11.52 2.027 12.928 7.765l12.437 49.792 9.749-29.248c2.923-8.704 17.344-8.704 20.245 0l9.749 29.248 12.437-49.792c1.408-5.739 7.104-9.195 12.928-7.765 5.761 1.428 9.217 7.231 7.788 12.927z" fill="#FFF"/></svg>