<?xml version="1.0" encoding="utf-8"?><svg xmlns="http://www.w3.org/2000/svg" xmlns:xlink="http://www.w3.org/1999/xlink"><symbol viewBox="0 0 263.36 240.63" id="svg--logo" xmlns="http://www.w3.org/2000/svg"><g data-name="Слой 2"><g data-name="Capa 1"><path d="M252.89 132.91c4.46-2.39 10-12.72 10-12.72s-11.69-1-16.15 1.36c-.44.24-.79.6-1.21.88a120.53 120.53 0 0 0 1.17-12.68c2.8.75 6.82-.51 9.74-3.1 3.8-3.36 6.86-14.69 6.86-14.69S251.75 93.65 248 97a14 14 0 0 0-1.21 1.41 117.85 117.85 0 0 0-1.57-13.12c2.86 0 6.42-2.14 8.66-5.28 2.93-4.13 3.34-15.85 3.34-15.85s-10.93 4.27-13.86 8.39a13.84 13.84 0 0 0-.73 1.39c-1-3.38-2.08-6.69-3.34-9.94 2.86-.47 6-3.28 7.59-6.84 2.08-4.61.23-16.2.23-16.2s-9.91 6.3-12 10.92a12.31 12.31 0 0 0-.49 1.63 115.37 115.37 0 0 0-5.8-10.13c2.6-1.08 5.07-4.24 6-7.82 1.34-4.89-2.29-16-2.29-16s-8.8 7.77-10.13 12.65a12.22 12.22 0 0 0-.25 1.9 117.4 117.4 0 0 0-8.7-9.87c2.36-1.6 4.12-5.33 4.26-9.12C217.92 10 211.85 0 211.85 0s-6.8 9.58-7 14.63a12.15 12.15 0 0 0 .07 1.74c-2.54-2.1-5.15-4.11-7.87-6a12.55 12.55 0 0 0-5.49-6.81C187.23 1 175.51 1.4 175.51 1.4s5.06 10.58 9.4 13.19a13.7 13.7 0 0 0 6.09 1.87c2.07 1.41 4.12 2.86 6.08 4.41-5.28.56-14 5.79-14 5.79s9.56 6.79 14.62 7c3.88.14 7.8-1.41 9.49-3.74 2.08 2.09 4.05 4.3 6 6.56-5.33-.53-14.69 2.5-14.69 2.5s7.76 8.79 12.65 10.12c3.81 1 8 .35 10.16-1.63 1.55 2.39 3 4.84 4.33 7.35-5-1.54-15.27.07-15.27.07s6.29 9.9 10.91 12c3.44 1.55 7.53 1.62 10 .24.84 2.16 1.59 4.36 2.28 6.58-4.61-2.54-15.09-2.94-15.09-2.94s4.28 10.93 8.41 13.85c3.11 2.21 7.16 3.08 9.87 2.15q.77 4.4 1.2 8.93c-4.1-3.4-13.77-6-13.77-6s1.7 11.61 5.06 15.39c2.49 2.81 6.17 4.56 9 4.32-.11 3-.3 6-.65 9-3-4.33-12.23-9.38-12.23-9.38s-1 11.69 1.37 16.14c1.93 3.59 5.47 6.17 8.44 6.22-.65 2.61-1.35 5.23-2.19 7.77-2.12-4.7-11.29-11.19-11.29-11.19s-2.39 11.5-.51 16.19c1.36 3.47 4.2 6.35 6.91 7.1-1.11 2.34-2.24 4.65-3.51 6.88-1.2-5-9-13.08-9-13.08s-4.49 10.84-3.54 15.81c.68 3.62 2.89 6.95 5.38 8.25-1.61 2.18-3.28 4.33-5.05 6.38-.08-5.1-6.35-14.77-6.35-14.77s-6.49 9.78-6.53 14.82c0 3.75 1.54 7.51 3.8 9.23-2 1.78-4 3.51-6 5.15v-.27c.6-5-4.6-15.55-4.6-15.55s-7.58 8.95-8.19 14a12.09 12.09 0 0 0 2.32 9c-2.56 1.56-5.17 3-7.87 4.38a14 14 0 0 0 .66-2.24c1-5-3.47-15.83-3.47-15.83s-8.2 8.39-9.16 13.36a12.19 12.19 0 0 0 1.69 9.19 111.34 111.34 0 0 1-14.62 4.28 23.43 23.43 0 0 0-44.92 0 108.87 108.87 0 0 1-14.62-4.28 12.19 12.19 0 0 0 1.69-9.19c-1-5-9.16-13.36-9.16-13.36s-4.45 10.86-3.47 15.83a14 14 0 0 0 .66 2.24c-2.6-1.49-5.23-2.93-7.77-4.49a12.2 12.2 0 0 0 2.32-9c-.61-5-8.2-14-8.2-14s-5.19 10.5-4.58 15.54v.27a99.072 99.072 0 0 1-6-5.15c2.25-1.72 3.81-5.48 3.79-9.23 0-5.06-6.53-14.82-6.53-14.82s-6.26 9.67-6.34 14.77c-1.77-2.06-3.44-4.21-5.05-6.38 2.49-1.31 4.69-4.63 5.38-8.25 1-5-3.54-15.81-3.54-15.81s-7.82 8.1-9 13.08c-1.26-2.24-2.4-4.54-3.5-6.88 2.72-.76 5.55-3.64 6.91-7.1 1.87-4.71-.52-16.19-.52-16.19s-9.18 6.47-11.3 11.15c-.84-2.56-1.54-5.15-2.18-7.77 3 0 6.51-2.63 8.44-6.22 2.41-4.46 1.38-16.14 1.38-16.14s-9.27 5.05-12.24 9.38c-.35-2.94-.54-5.94-.65-9 2.83.24 6.52-1.51 9-4.32 3.37-3.78 5.06-15.39 5.06-15.39s-9.66 2.64-13.77 6c.27-3 .68-6 1.2-8.93 2.7.93 6.77.06 9.87-2.15 4.13-2.92 8.4-13.85 8.4-13.85s-10.49.41-15.09 2.94q1-3.35 2.29-6.58c2.48 1.38 6.57 1.3 10-.24 4.62-2.06 10.92-12 10.92-12s-10.26-1.58-15.31 0c1.36-2.51 2.8-5 4.34-7.35 2.15 2 6.36 2.66 10.17 1.63C57 47.77 64.79 39 64.79 39s-9.38-3-14.7-2.49C52 34.23 54 32 56.06 29.93c1.7 2.32 5.63 3.87 9.5 3.74 5.05-.18 14.62-7 14.62-7s-8.68-5.23-14-5.79c2-1.55 4-3 6.09-4.4a13.73 13.73 0 0 0 6.14-1.87c4.33-2.61 9.4-13.19 9.4-13.19S76.13 1 71.8 3.59a12.58 12.58 0 0 0-5.5 6.81c-2.71 1.89-5.33 3.9-7.86 6a15.23 15.23 0 0 0 .06-1.74c-.19-5.06-7-14.63-7-14.63s-6.09 10-5.9 15.09c.14 3.79 1.89 7.53 4.25 9.11a120.26 120.26 0 0 0-8.69 9.87 14.59 14.59 0 0 0-.25-1.9c-1.33-4.89-10.13-12.65-10.13-12.65s-3.64 11.16-2.3 16c1 3.59 3.45 6.75 6.05 7.83a113 113 0 0 0-5.8 10.13 13.66 13.66 0 0 0-.48-1.63c-2.08-4.61-12-10.92-12-10.92s-1.85 11.58.23 16.19c1.6 3.56 4.75 6.37 7.59 6.84-1.25 3.24-2.38 6.55-3.34 9.93a13.84 13.84 0 0 0-.73-1.34c-2.93-4.14-13.86-8.4-13.86-8.4S6.59 75.91 9.53 80c2.23 3.13 5.8 5.29 8.66 5.28a114.07 114.07 0 0 0-1.58 13.12A14 14 0 0 0 15.4 97C11.61 93.65 0 92 0 92s3.06 11.33 6.86 14.69c2.92 2.59 6.95 3.85 9.74 3.1a116.46 116.46 0 0 0 1.17 12.68 14 14 0 0 0-1.21-.88c-4.45-2.42-16.15-1.38-16.15-1.38s5.59 10.32 10 12.73c3.19 1.71 7 2.07 9.61 1 .83 3.26 1.77 6.44 2.87 9.59a11.57 11.57 0 0 0-1.08-.61c-4.71-1.86-16.19.55-16.19.55s6.76 9.59 11.47 11.44c3.66 1.46 7.91 1.23 10.26-.46 1.5 3.18 3.11 6.28 4.87 9.3a10.83 10.83 0 0 0-1.13-.29c-5-1-15.81 3.54-15.81 3.54s8.43 8.17 13.41 9.12c3.91.74 8.08-.3 10-2.46 2.13 2.9 4.37 5.69 6.75 8.39-.32 0-.64-.07-1-.06-5.06 0-14.83 6.54-14.83 6.54s9.84 6.38 14.9 6.36c3.9 0 7.78-1.78 9.36-4.2 2.28 2.1 4.62 4.12 7.06 6h-.65c-5 .62-14 8.21-14 8.21S57 210.16 62 209.54c4.16-.51 8-3 9-5.82 2 1.21 3.87 2.49 5.9 3.59-5 2.07-11.69 8.63-11.69 8.63s10.85 4.41 15.81 3.42c4-.78 7.63-3.41 8.54-6.22a115.29 115.29 0 0 0 18.65 5.59 23.47 23.47 0 0 0 46.83 0 115.64 115.64 0 0 0 18.66-5.59c.9 2.81 4.52 5.44 8.54 6.22 5 1 15.83-3.46 15.83-3.46s-6.72-6.56-11.69-8.63c2-1.11 3.94-2.36 5.9-3.59 1 2.84 4.9 5.32 9 5.82 5 .62 15.54-4.58 15.54-4.58s-8.95-7.59-14-8.22h-.65c2.44-1.91 4.78-3.93 7.06-6 1.58 2.42 5.46 4.17 9.37 4.2 5.05 0 14.9-6.36 14.9-6.36s-9.64-6.54-14.7-6.54c-.32 0-.64 0-1 .06 2.38-2.68 4.62-5.49 6.75-8.39 2 2.16 6.14 3.21 10 2.46 5-.94 13.41-9.12 13.41-9.12s-10.84-4.49-15.81-3.55a10.88 10.88 0 0 0-1.13.3c1.76-3 3.37-6.1 4.87-9.3 2.35 1.7 6.6 1.91 10.26.46 4.71-1.85 11.47-11.45 11.47-11.45s-11.49-2.4-16.19-.54c-.39.17-.7.42-1.08.61 1.1-3.13 2-6.34 2.87-9.59 2.63 1.05 6.47.67 9.67-1.04z"/><path d="M131.75 105.73l-42.15-50h-8.24v105.3h22.5v-56.8l26.4 33h2.85l26.4-33v56.85H182V55.78h-8.1z"/></g></g></symbol></svg>