<svg viewBox="0 0 512 512" xmlns="http://www.w3.org/2000/svg"><path d="M512 210L256 512l-1.531-1.8L0 210 113.488 98.29h285.024zm0 0" fill="#00e8f2"/><path d="M512 210L256 512V98.29h142.512zm0 0" fill="#00cef5"/><path d="M341.75 209.75h-171.5l84.219-109.469L256 98.29zm0 0" fill="#9cfdff"/><path d="M398.508 98.29L340.5 209.75H512zm0 0" fill="#00f8fe"/><path d="M113.492 98.29L171.5 209.75H0zM241 0h30v62.16h-30zm0 0" fill="#9cfdff"/><path d="M316.848 63.504L341.172 5.23l27.683 11.56-24.324 58.269zm0 0" fill="#00f8fe"/><path d="M143.137 16.781L170.82 5.223l24.325 58.273-27.684 11.555zm0 0" fill="#9cfdff"/><path d="M340.5 209.75L256 512l-1.531-5.469L171.5 209.75zM256 0h15v62.16h-15zm0 0" fill="#00f8fe"/><path d="M341.75 209.75h-1.25L256 512V98.29zm0 0" fill="#9cfdff"/><path d="M341.75 209.75H256V98.29zm0 0" fill="#00f8fe"/></svg>